<?xml version="1.0" encoding="utf-8"?>
<svg version="1.0" xmlns="http://www.w3.org/2000/svg" xmlns:xlink="http://www.w3.org/1999/xlink"
	x="0px" y="0px" viewBox="0 100 600 200" xml:space="preserve">
<g>
	<path id="SVGID_1_" style="overflow:visible;fill:#1D1D1B;" d="M265.2,253.8v-12.7c-4,4.8-8.5,8.5-13.4,10.9c-5,2.4-10.4,3.7-16.3,3.7c-10.5,0-19.4-3.8-26.8-11.4
		c-7.4-7.6-11.1-16.8-11.1-27.7c0-10.6,3.7-19.8,11.2-27.3c7.5-7.6,16.5-11.4,27-11.4c6.1,0,11.6,1.3,16.5,3.9
		c4.9,2.6,9.2,6.5,13,11.6v-13.6h9.4v73.9H265.2L265.2,253.8z M257.3,195.8c-5.6-5.7-12.6-8.6-20.8-8.6c-5.3,0-10.2,1.3-14.7,3.9
		c-4.5,2.6-8,6.3-10.7,11c-2.6,4.7-4,9.7-4,14.9c0,5.2,1.3,10.2,4,14.9c2.7,4.8,6.3,8.4,10.8,11.1c4.5,2.6,9.3,4,14.5,4
		c5.2,0,10.1-1.3,14.8-3.9c4.7-2.6,8.3-6.2,10.8-10.7c2.5-4.5,3.8-9.5,3.8-15.1C265.8,208.7,263,201.5,257.3,195.8L257.3,195.8z
		 M122.8,253.8v-12.7c-4,4.8-8.5,8.5-13.4,10.9c-5,2.4-10.4,3.7-16.3,3.7c-10.5,0-19.4-3.8-26.8-11.4c-7.4-7.6-11.1-16.8-11.1-27.7
		c0-10.6,3.7-19.8,11.2-27.3c7.5-7.6,16.5-11.4,27-11.4c6.1,0,11.6,1.3,16.5,3.9c4.9,2.6,9.2,6.5,13,11.6v-13.6h9.4v73.9H122.8
		L122.8,253.8z M115,195.8c-5.6-5.7-12.6-8.6-20.8-8.6c-5.3,0-10.2,1.3-14.7,3.9c-4.5,2.6-8,6.3-10.7,11c-2.6,4.7-4,9.7-4,14.9
		c0,5.2,1.3,10.2,4,14.9c2.7,4.8,6.3,8.4,10.8,11.1c4.5,2.6,9.3,4,14.5,4c5.2,0,10.1-1.3,14.8-3.9c4.7-2.6,8.3-6.2,10.8-10.7
		c2.5-4.5,3.8-9.5,3.8-15.1C123.4,208.7,120.6,201.5,115,195.8L115,195.8z M346.3,253.8h-13.4l-37.3-33.3v33.3h-9.5v-97.5h9.5v53.4
		l34.3-29.8h14l-40.7,35.3L346.3,253.8L346.3,253.8z M204,253.8h-13.4l-37.3-33.3v33.3h-9.5v-97.5h9.5v53.4l34.3-29.8h14
		l-40.7,35.3L204,253.8L204,253.8z M427.7,217.6c0.2,8.6,2.9,15.6,8.2,21.1c5.3,5.5,11.9,8.2,19.7,8.2c3.8,0,7.4-0.7,11-2
		c3.6-1.3,6.6-3,9.1-5.2c2.5-2.2,5.2-5.7,8.1-10.5l8,4.2c-2.6,5.2-5.7,9.3-9.1,12.5c-3.5,3.2-7.3,5.6-11.6,7.2
		c-4.3,1.7-9.2,2.5-14.6,2.5c-12.1,0-21.5-4-28.3-11.9c-6.8-7.9-10.2-16.8-10.2-26.8c0-9.4,2.9-17.7,8.6-25.1
		c7.3-9.3,17.1-14,29.3-14c12.6,0,22.7,4.8,30.2,14.3c5.4,6.8,8.1,15.2,8.2,25.3H427.7L427.7,217.6z M478.2,197.2
		c-2.4-3-5.6-5.5-9.6-7.3c-4-1.9-8.2-2.8-12.6-2.8c-7.3,0-13.5,2.3-18.7,7c-3.8,3.4-6.7,8.5-8.6,15.3h55.1
		C482.5,204.3,480.6,200.2,478.2,197.2L478.2,197.2z M379.1,186.9c-9,0-16.5,2.9-22.4,8.7c-6,5.8-8.9,12.8-8.9,21.1
		c0,5.4,1.4,10.5,4.1,15.2c2.7,4.7,6.5,8.4,11.3,11.1c4.8,2.6,10.1,3.9,16.1,3.9c10.9,0,19.7-4.3,26.6-13l7.5,5
		c-3.5,5.3-8.3,9.4-14.2,12.4c-6,2.9-12.7,4.4-20.4,4.4c-11.7,0-21.4-3.7-29.1-11.1c-7.7-7.4-11.6-16.5-11.6-27.1
		c0-7.2,1.8-13.8,5.4-19.9c3.6-6.1,8.6-10.9,14.9-14.4c6.3-3.4,13.3-5.2,21.1-5.2c4.9,0,9.6,0.7,14.2,2.2c4.6,1.5,8.4,3.4,11.6,5.8
		c3.2,2.4,5.9,5.5,8.1,9.2l-7.5,4.7C399.2,191.3,390.3,186.9,379.1,186.9L379.1,186.9z M369,278.3l-6.9-2.7l10.2-16.5l9.5,3.1
		L369,278.3L369,278.3z"/>
		<path fill="#1A75BC" d="M535.1,168.1l-15.6,15.6c-2.1,2.1-5.6,2.1-7.8,0l-7.8-7.8c-2.1-2.1-2.1-5.6,0-7.8c2.2-2.1,5.7-2.1,7.8,0
		l3.9,3.9l11.7-11.7c2.1-2.2,5.6-2.2,7.8,0C537.3,162.5,537.3,165.9,535.1,168.1 M519.5,144.4c-15.2,0-27.6,12.4-27.6,27.6 M492,172
		c0,15.2,12.4,27.6,27.6,27.6c15.2,0,27.6-12.4,27.6-27.6c0-15.2-12.4-27.6-27.6-27.6"/>
</g>
</svg>